<svg version="1.1" xmlns="http://www.w3.org/2000/svg" xmlns:xlink="http://www.w3.org/1999/xlink" width="61.5" height="33.5027" viewBox="0,0,61.5,33.5027"><g transform="translate(-218.75,-16.7473)"><g data-paper-data="{&quot;isPaintingLayer&quot;:true}" fill="none" fill-rule="nonzero" stroke="#000000" stroke-linejoin="miter" stroke-miterlimit="10" stroke-dasharray="" stroke-dashoffset="0" style="mix-blend-mode: normal"><path d="M220,38v-20l51.44444,0.11111c0,0 3.55556,11.46719 3.55556,15.11111c0,2.04147 0,4.77778 0,4.77778z" stroke-width="2.5" stroke-linecap="butt"/><path d="M233.66667,43.5c0,3.03757 -2.23858,5.5 -5,5.5c-2.76142,0 -5,-2.46243 -5,-5.5c0,-3.03757 2.23858,-5.5 5,-5.5c2.76142,0 5,2.46243 5,5.5z" stroke-width="2.5" stroke-linecap="butt"/><path d="M270.33333,43.5c0,3.03757 -2.23858,5.5 -5,5.5c-2.76142,0 -5,-2.46243 -5,-5.5c0,-3.03757 2.23858,-5.5 5,-5.5c2.76142,0 5,2.46243 5,5.5z" stroke-width="2.5" stroke-linecap="butt"/><path d="M273.55556,22.88889l5.44444,-0.22222v4.66667" stroke-width="2.5" stroke-linecap="round"/><path d="M226.66667,28v-5.66667h6v5.66667z" stroke-width="1.5" stroke-linecap="butt"/><path d="M252,28.11111v-5.66666h6v5.66666z" stroke-width="1.5" stroke-linecap="butt"/><path d="M239.33333,28.11111v-5.66666h6v5.66666z" stroke-width="1.5" stroke-linecap="butt"/><path d="M264,37.55556v-14.88889h6v14.88889z" stroke-width="1.5" stroke-linecap="butt"/></g></g></svg>