<svg version="1.1" xmlns="http://www.w3.org/2000/svg" xmlns:xlink="http://www.w3.org/1999/xlink" width="449.62548" height="53.82835" viewBox="0,0,449.62548,53.82835"><g transform="translate(-4.8325,-2.27686)"><g data-paper-data="{&quot;isPaintingLayer&quot;:true}" fill-rule="nonzero" stroke-linejoin="miter" stroke-miterlimit="10" stroke-dasharray="" stroke-dashoffset="0" style="mix-blend-mode: normal"><path d="M30,31l421,2" fill="none" stroke="#000000" stroke-width="2" stroke-linecap="round"/><path d="M34,31c0,2.20914 -1.34314,4 -3,4c-1.65686,0 -3,-1.79086 -3,-4c0,-2.20914 1.34314,-4 3,-4c1.65686,0 3,1.79086 3,4z" fill="#000000" stroke="#000000" stroke-width="2" stroke-linecap="butt"/><path d="M134,32c0,2.20914 -1.79086,4 -4,4c-2.20914,0 -4,-1.79086 -4,-4c0,-2.20914 1.79086,-4 4,-4c2.20914,0 4,1.79086 4,4z" fill="#000000" stroke="#000000" stroke-width="2" stroke-linecap="butt"/><path d="M430,33.5c0,1.93299 -2.68629,3.5 -6,3.5c-3.31371,0 -6,-1.56701 -6,-3.5c0,-1.93299 2.68629,-3.5 6,-3.5c3.31371,0 6,1.56701 6,3.5z" fill="#000000" stroke="#000000" stroke-width="2" stroke-linecap="butt"/><path d="M198,31c0,0 13.70242,-28.17311 61.80622,-27.71768c60.11653,0.56916 63.19378,28.71768 63.19378,28.71768" fill="none" stroke="#000000" stroke-width="2" stroke-linecap="round"/><path d="M243,5l-2,25" fill="none" stroke="#000000" stroke-width="2" stroke-linecap="round"/><path d="M277,4v29" fill="none" stroke="#000000" stroke-width="2" stroke-linecap="round"/><text transform="translate(5,48.90375) scale(0.335,0.335)" font-size="40" xml:space="preserve" fill="#000000" fill-rule="nonzero" stroke="none" stroke-width="1" stroke-linecap="butt" stroke-linejoin="miter" stroke-miterlimit="10" stroke-dasharray="" stroke-dashoffset="0" font-family="Sans Serif" font-weight="normal" text-anchor="start" style="mix-blend-mode: normal"><tspan x="0" dy="0">港务新村</tspan></text><text transform="translate(102,51.75) scale(0.34832,0.34832)" font-size="40" xml:space="preserve" fill="#000000" fill-rule="nonzero" stroke="none" stroke-width="1" stroke-linecap="butt" stroke-linejoin="miter" stroke-miterlimit="10" stroke-dasharray="" stroke-dashoffset="0" font-family="Sans Serif" font-weight="normal" text-anchor="start" style="mix-blend-mode: normal"><tspan x="0" dy="0">沿江东路</tspan></text><text transform="translate(227,48.5) scale(0.36999,0.36999)" font-size="40" xml:space="preserve" fill="#000000" fill-rule="nonzero" stroke="none" stroke-width="1" stroke-linecap="butt" stroke-linejoin="miter" stroke-miterlimit="10" stroke-dasharray="" stroke-dashoffset="0" font-family="Sans Serif" font-weight="normal" text-anchor="start" style="mix-blend-mode: normal"><tspan x="0" dy="0">跨江大桥</tspan></text><text transform="translate(398,51.73539) scale(0.34959,0.34959)" font-size="40" xml:space="preserve" fill="#000000" fill-rule="nonzero" stroke="none" stroke-width="1" stroke-linecap="butt" stroke-linejoin="miter" stroke-miterlimit="10" stroke-dasharray="" stroke-dashoffset="0" font-family="Sans Serif" font-weight="normal" text-anchor="start" style="mix-blend-mode: normal"><tspan x="0" dy="0">沿江西路</tspan></text></g></g></svg>